<mxfile host="app.diagrams.net" agent="Mozilla/5.0 (X11; Linux x86_64) AppleWebKit/537.36 (KHTML, like Gecko) Chrome/133.0.0.0 Safari/537.36" version="26.0.14">
  <diagram name="Page-1" id="e7e014a7-5840-1c2e-5031-d8a46d1fe8dd">
    <mxGraphModel dx="1434" dy="754" grid="1" gridSize="10" guides="1" tooltips="1" connect="1" arrows="1" fold="1" page="1" pageScale="1" pageWidth="1169" pageHeight="826" background="none" math="0" shadow="0">
      <root>
        <mxCell id="0" />
        <mxCell id="1" parent="0" />
        <mxCell id="ycadE-7DeE36cVl8lBZi-41" value="" style="ellipse;html=1;shape=startState;labelBackgroundColor=none;" parent="1" vertex="1">
          <mxGeometry x="65" y="20" width="30" height="30" as="geometry" />
        </mxCell>
        <mxCell id="ycadE-7DeE36cVl8lBZi-42" value="" style="edgeStyle=orthogonalEdgeStyle;html=1;verticalAlign=bottom;endArrow=open;endSize=8;rounded=0;entryX=0.263;entryY=0.017;entryDx=0;entryDy=0;labelBackgroundColor=none;fontColor=default;entryPerimeter=0;exitX=0.5;exitY=0.907;exitDx=0;exitDy=0;exitPerimeter=0;" parent="1" source="ycadE-7DeE36cVl8lBZi-41" target="JrRgfK8F16uHAJ6plWWZ-1" edge="1">
          <mxGeometry relative="1" as="geometry">
            <mxPoint x="80" y="120" as="targetPoint" />
            <mxPoint x="79" y="50" as="sourcePoint" />
            <Array as="points">
              <mxPoint x="80" y="121" />
            </Array>
          </mxGeometry>
        </mxCell>
        <mxCell id="ycadE-7DeE36cVl8lBZi-49" value="&lt;font style=&quot;color: rgb(0, 0, 0); background-color: light-dark(#ffffff, var(--ge-dark-color, #121212));&quot;&gt;Show cars list&lt;/font&gt;" style="rounded=1;whiteSpace=wrap;html=1;arcSize=40;labelBackgroundColor=none;" parent="1" vertex="1">
          <mxGeometry x="320" y="140" width="120" height="40" as="geometry" />
        </mxCell>
        <mxCell id="ycadE-7DeE36cVl8lBZi-50" value="" style="edgeStyle=orthogonalEdgeStyle;html=1;verticalAlign=bottom;endArrow=open;endSize=8;rounded=0;labelBackgroundColor=none;fontColor=default;entryX=0.5;entryY=0;entryDx=0;entryDy=0;" parent="1" source="ycadE-7DeE36cVl8lBZi-49" target="10" edge="1">
          <mxGeometry relative="1" as="geometry">
            <mxPoint x="381" y="210" as="targetPoint" />
            <Array as="points">
              <mxPoint x="385" y="160" />
              <mxPoint x="385" y="210" />
            </Array>
          </mxGeometry>
        </mxCell>
        <mxCell id="ycadE-7DeE36cVl8lBZi-56" value="" style="edgeStyle=orthogonalEdgeStyle;html=1;verticalAlign=bottom;endArrow=open;endSize=8;rounded=0;exitX=0;exitY=0.5;exitDx=0;exitDy=0;labelBackgroundColor=none;fontColor=default;entryX=0.452;entryY=0.019;entryDx=0;entryDy=0;entryPerimeter=0;" parent="1" source="16" target="ycadE-7DeE36cVl8lBZi-63" edge="1">
          <mxGeometry relative="1" as="geometry">
            <mxPoint x="249.51999999999995" y="440" as="targetPoint" />
            <mxPoint x="249.4399999999999" y="305.79999999999995" as="sourcePoint" />
            <Array as="points" />
          </mxGeometry>
        </mxCell>
        <mxCell id="ycadE-7DeE36cVl8lBZi-57" value="" style="edgeStyle=orthogonalEdgeStyle;html=1;verticalAlign=bottom;endArrow=open;endSize=8;rounded=0;exitX=1;exitY=0.5;exitDx=0;exitDy=0;labelBackgroundColor=none;fontColor=default;" parent="1" source="16" target="ycadE-7DeE36cVl8lBZi-61" edge="1">
          <mxGeometry relative="1" as="geometry">
            <mxPoint x="379.5" y="320" as="targetPoint" />
            <mxPoint x="380.36" y="304.4" as="sourcePoint" />
            <Array as="points" />
          </mxGeometry>
        </mxCell>
        <mxCell id="ycadE-7DeE36cVl8lBZi-59" value="Add new car" style="rounded=1;whiteSpace=wrap;html=1;arcSize=40;labelBackgroundColor=none;" parent="1" vertex="1">
          <mxGeometry x="460" y="380" width="120" height="40" as="geometry" />
        </mxCell>
        <mxCell id="ycadE-7DeE36cVl8lBZi-60" value="" style="edgeStyle=orthogonalEdgeStyle;html=1;verticalAlign=bottom;endArrow=open;endSize=8;rounded=0;labelBackgroundColor=none;fontColor=default;entryX=0.5;entryY=0;entryDx=0;entryDy=0;" parent="1" source="ycadE-7DeE36cVl8lBZi-59" target="2" edge="1">
          <mxGeometry relative="1" as="geometry">
            <mxPoint x="520" y="390" as="targetPoint" />
          </mxGeometry>
        </mxCell>
        <mxCell id="ycadE-7DeE36cVl8lBZi-61" value="Update the car" style="rounded=1;whiteSpace=wrap;html=1;arcSize=40;labelBackgroundColor=none;" parent="1" vertex="1">
          <mxGeometry x="320" y="380" width="120" height="40" as="geometry" />
        </mxCell>
        <mxCell id="ycadE-7DeE36cVl8lBZi-62" value="" style="edgeStyle=orthogonalEdgeStyle;html=1;verticalAlign=bottom;endArrow=open;endSize=8;rounded=0;entryX=0.5;entryY=0;entryDx=0;entryDy=0;labelBackgroundColor=none;fontColor=default;" parent="1" source="ycadE-7DeE36cVl8lBZi-61" target="5" edge="1">
          <mxGeometry relative="1" as="geometry">
            <mxPoint x="420" y="450" as="targetPoint" />
            <Array as="points" />
          </mxGeometry>
        </mxCell>
        <mxCell id="ycadE-7DeE36cVl8lBZi-63" value="Remove the car" style="rounded=1;whiteSpace=wrap;html=1;arcSize=40;labelBackgroundColor=none;" parent="1" vertex="1">
          <mxGeometry x="175" y="380" width="120" height="40" as="geometry" />
        </mxCell>
        <mxCell id="ycadE-7DeE36cVl8lBZi-64" value="" style="edgeStyle=orthogonalEdgeStyle;html=1;verticalAlign=bottom;endArrow=open;endSize=8;rounded=0;labelBackgroundColor=none;fontColor=default;exitX=0.541;exitY=1;exitDx=0;exitDy=0;exitPerimeter=0;entryX=0.5;entryY=0;entryDx=0;entryDy=0;" parent="1" source="ycadE-7DeE36cVl8lBZi-63" target="37" edge="1">
          <mxGeometry relative="1" as="geometry">
            <mxPoint x="240" y="590" as="targetPoint" />
            <Array as="points">
              <mxPoint x="240" y="480" />
              <mxPoint x="240" y="480" />
            </Array>
            <mxPoint x="240" y="440" as="sourcePoint" />
          </mxGeometry>
        </mxCell>
        <mxCell id="ycadE-7DeE36cVl8lBZi-87" value="Delete car entry" style="rounded=1;whiteSpace=wrap;html=1;arcSize=40;labelBackgroundColor=none;" parent="1" vertex="1">
          <mxGeometry x="180" y="910" width="120" height="40" as="geometry" />
        </mxCell>
        <mxCell id="ycadE-7DeE36cVl8lBZi-88" value="" style="edgeStyle=orthogonalEdgeStyle;html=1;verticalAlign=bottom;endArrow=open;endSize=8;rounded=0;labelBackgroundColor=none;fontColor=default;entryX=0;entryY=0.5;entryDx=0;entryDy=0;" parent="1" source="ycadE-7DeE36cVl8lBZi-87" target="40" edge="1">
          <mxGeometry relative="1" as="geometry">
            <mxPoint x="240" y="1012" as="targetPoint" />
            <Array as="points">
              <mxPoint x="240" y="1035" />
            </Array>
          </mxGeometry>
        </mxCell>
        <mxCell id="ycadE-7DeE36cVl8lBZi-89" value="&lt;span style=&quot;color: rgb(0, 0, 0);&quot;&gt;Modify exiting car&amp;nbsp;&lt;/span&gt;&lt;div style=&quot;scrollbar-color: light-dark(#e2e2e2, #4b4b4b)&lt;br/&gt;&#x9;&#x9;&#x9;&#x9;&#x9;light-dark(#fbfbfb, var(--dark-panel-color));&quot;&gt;information&lt;/div&gt;" style="rounded=1;whiteSpace=wrap;html=1;arcSize=40;labelBackgroundColor=none;" parent="1" vertex="1">
          <mxGeometry x="320" y="910" width="120" height="40" as="geometry" />
        </mxCell>
        <mxCell id="ycadE-7DeE36cVl8lBZi-90" value="" style="edgeStyle=orthogonalEdgeStyle;html=1;verticalAlign=bottom;endArrow=open;endSize=8;rounded=0;labelBackgroundColor=none;fontColor=default;" parent="1" source="ycadE-7DeE36cVl8lBZi-89" edge="1">
          <mxGeometry relative="1" as="geometry">
            <mxPoint x="380" y="1020" as="targetPoint" />
            <Array as="points">
              <mxPoint x="380" y="1014" />
            </Array>
          </mxGeometry>
        </mxCell>
        <mxCell id="ycadE-7DeE36cVl8lBZi-91" value="Save car details" style="rounded=1;whiteSpace=wrap;html=1;arcSize=40;labelBackgroundColor=none;" parent="1" vertex="1">
          <mxGeometry x="460" y="910" width="120" height="40" as="geometry" />
        </mxCell>
        <mxCell id="ycadE-7DeE36cVl8lBZi-92" value="" style="edgeStyle=orthogonalEdgeStyle;html=1;verticalAlign=bottom;endArrow=open;endSize=8;rounded=0;labelBackgroundColor=none;fontColor=default;exitX=0.5;exitY=1;exitDx=0;exitDy=0;entryX=1;entryY=0.5;entryDx=0;entryDy=0;" parent="1" source="ycadE-7DeE36cVl8lBZi-91" target="40" edge="1">
          <mxGeometry relative="1" as="geometry">
            <mxPoint x="520" y="1053" as="targetPoint" />
            <mxPoint x="529.62" y="970.0044827586207" as="sourcePoint" />
          </mxGeometry>
        </mxCell>
        <mxCell id="ycadE-7DeE36cVl8lBZi-96" value="Confirm changes" style="rounded=1;whiteSpace=wrap;html=1;arcSize=40;labelBackgroundColor=none;" parent="1" vertex="1">
          <mxGeometry x="320" y="1080" width="120" height="40" as="geometry" />
        </mxCell>
        <mxCell id="ycadE-7DeE36cVl8lBZi-98" value="" style="ellipse;html=1;shape=endState;labelBackgroundColor=none;" parent="1" vertex="1">
          <mxGeometry x="365" y="1150" width="30" height="30" as="geometry" />
        </mxCell>
        <mxCell id="JrRgfK8F16uHAJ6plWWZ-1" value="login" style="shape=mxgraph.uml25.behaviorAction;html=1;rounded=1;absoluteArcSize=1;arcSize=10;align=left;spacingLeft=5;whiteSpace=wrap;" parent="1" vertex="1">
          <mxGeometry x="30" y="130" width="190" height="60" as="geometry" />
        </mxCell>
        <mxCell id="JrRgfK8F16uHAJ6plWWZ-3" value="" style="edgeStyle=orthogonalEdgeStyle;html=1;verticalAlign=bottom;endArrow=open;endSize=8;rounded=0;labelBackgroundColor=none;fontColor=default;exitX=1.004;exitY=0.5;exitDx=0;exitDy=0;exitPerimeter=0;" parent="1" source="JrRgfK8F16uHAJ6plWWZ-1" edge="1">
          <mxGeometry relative="1" as="geometry">
            <mxPoint x="320" y="160" as="targetPoint" />
            <mxPoint x="210" y="150" as="sourcePoint" />
            <Array as="points" />
          </mxGeometry>
        </mxCell>
        <mxCell id="2" value="Add the car informaitons" style="rounded=1;whiteSpace=wrap;html=1;arcSize=40;" parent="1" vertex="1">
          <mxGeometry x="460" y="440" width="120" height="40" as="geometry" />
        </mxCell>
        <mxCell id="5" value="Add the new informaitons" style="rounded=1;whiteSpace=wrap;html=1;arcSize=40;" parent="1" vertex="1">
          <mxGeometry x="320" y="440" width="120" height="40" as="geometry" />
        </mxCell>
        <mxCell id="6" value="" style="edgeStyle=orthogonalEdgeStyle;html=1;verticalAlign=bottom;endArrow=open;endSize=8;" parent="1" source="5" edge="1">
          <mxGeometry relative="1" as="geometry">
            <mxPoint x="380" y="530" as="targetPoint" />
            <Array as="points">
              <mxPoint x="380" y="530" />
            </Array>
          </mxGeometry>
        </mxCell>
        <mxCell id="10" value="" style="rhombus;" parent="1" vertex="1">
          <mxGeometry x="370" y="210" width="30" height="30" as="geometry" />
        </mxCell>
        <mxCell id="11" value="" style="edgeStyle=orthogonalEdgeStyle;html=1;verticalAlign=bottom;endArrow=open;endSize=8;rounded=0;labelBackgroundColor=none;fontColor=default;exitX=1;exitY=0.5;exitDx=0;exitDy=0;entryX=0.5;entryY=0;entryDx=0;entryDy=0;" parent="1" source="10" target="ycadE-7DeE36cVl8lBZi-59" edge="1">
          <mxGeometry relative="1" as="geometry">
            <mxPoint x="470" y="225" as="targetPoint" />
            <mxPoint x="440" y="220" as="sourcePoint" />
            <Array as="points">
              <mxPoint x="520" y="225" />
            </Array>
          </mxGeometry>
        </mxCell>
        <mxCell id="13" value="" style="edgeStyle=orthogonalEdgeStyle;html=1;verticalAlign=bottom;endArrow=open;endSize=8;rounded=0;labelBackgroundColor=none;fontColor=default;exitX=0;exitY=0.5;exitDx=0;exitDy=0;entryX=0.5;entryY=0;entryDx=0;entryDy=0;" parent="1" source="10" target="14" edge="1">
          <mxGeometry relative="1" as="geometry">
            <mxPoint x="300" y="225" as="targetPoint" />
            <mxPoint x="270" y="224.76" as="sourcePoint" />
            <Array as="points" />
          </mxGeometry>
        </mxCell>
        <mxCell id="14" value="Choose a car" style="rounded=1;whiteSpace=wrap;html=1;arcSize=40;" parent="1" vertex="1">
          <mxGeometry x="240" y="240" width="120" height="40" as="geometry" />
        </mxCell>
        <mxCell id="15" value="" style="edgeStyle=orthogonalEdgeStyle;html=1;verticalAlign=bottom;endArrow=open;endSize=8;" parent="1" source="14" edge="1">
          <mxGeometry relative="1" as="geometry">
            <mxPoint x="300" y="340" as="targetPoint" />
          </mxGeometry>
        </mxCell>
        <mxCell id="16" value="" style="rhombus;" parent="1" vertex="1">
          <mxGeometry x="285" y="340" width="30" height="30" as="geometry" />
        </mxCell>
        <mxCell id="18" value="" style="edgeStyle=orthogonalEdgeStyle;html=1;verticalAlign=bottom;endArrow=open;endSize=8;rounded=0;labelBackgroundColor=none;fontColor=default;entryX=0.5;entryY=0;entryDx=0;entryDy=0;" parent="1" target="26" edge="1">
          <mxGeometry relative="1" as="geometry">
            <mxPoint x="519.74" y="500" as="targetPoint" />
            <mxPoint x="519.74" y="480" as="sourcePoint" />
          </mxGeometry>
        </mxCell>
        <mxCell id="19" value="" style="rhombus;whiteSpace=wrap;html=1;" parent="1" vertex="1">
          <mxGeometry x="480" y="620" width="80" height="40" as="geometry" />
        </mxCell>
        <mxCell id="20" value="invalid" style="edgeStyle=orthogonalEdgeStyle;html=1;align=left;verticalAlign=bottom;endArrow=open;endSize=8;entryX=0;entryY=0.5;entryDx=0;entryDy=0;" parent="1" source="19" target="32" edge="1">
          <mxGeometry x="-1" relative="1" as="geometry">
            <mxPoint x="620" y="590" as="targetPoint" />
          </mxGeometry>
        </mxCell>
        <mxCell id="21" value="valid" style="edgeStyle=orthogonalEdgeStyle;html=1;align=left;verticalAlign=top;endArrow=open;endSize=8;entryX=0.5;entryY=0;entryDx=0;entryDy=0;" parent="1" source="19" target="ycadE-7DeE36cVl8lBZi-91" edge="1">
          <mxGeometry x="-1" relative="1" as="geometry">
            <mxPoint x="520" y="740" as="targetPoint" />
          </mxGeometry>
        </mxCell>
        <mxCell id="24" value="Validate input data" style="rounded=1;whiteSpace=wrap;html=1;arcSize=40;" parent="1" vertex="1">
          <mxGeometry x="320" y="530" width="120" height="40" as="geometry" />
        </mxCell>
        <mxCell id="25" value="" style="edgeStyle=orthogonalEdgeStyle;html=1;verticalAlign=bottom;endArrow=open;endSize=8;entryX=0.5;entryY=0;entryDx=0;entryDy=0;" parent="1" source="24" target="29" edge="1">
          <mxGeometry relative="1" as="geometry">
            <mxPoint x="380" y="630" as="targetPoint" />
          </mxGeometry>
        </mxCell>
        <mxCell id="33" value="" style="edgeStyle=none;html=1;" parent="1" source="26" target="19" edge="1">
          <mxGeometry relative="1" as="geometry" />
        </mxCell>
        <mxCell id="26" value="Validate input data" style="rounded=1;whiteSpace=wrap;html=1;arcSize=40;" parent="1" vertex="1">
          <mxGeometry x="460" y="530" width="120" height="40" as="geometry" />
        </mxCell>
        <mxCell id="28" value="" style="edgeStyle=orthogonalEdgeStyle;html=1;verticalAlign=bottom;endArrow=open;endSize=8;rounded=0;labelBackgroundColor=none;fontColor=default;entryX=0.5;entryY=0;entryDx=0;entryDy=0;" parent="1" edge="1">
          <mxGeometry relative="1" as="geometry">
            <mxPoint x="519.87" y="620" as="targetPoint" />
            <mxPoint x="519.61" y="570" as="sourcePoint" />
          </mxGeometry>
        </mxCell>
        <mxCell id="29" value="" style="rhombus;whiteSpace=wrap;html=1;" parent="1" vertex="1">
          <mxGeometry x="340" y="660" width="80" height="40" as="geometry" />
        </mxCell>
        <mxCell id="30" value="invalid" style="edgeStyle=orthogonalEdgeStyle;html=1;align=left;verticalAlign=bottom;endArrow=open;endSize=8;entryX=1;entryY=0.5;entryDx=0;entryDy=0;" parent="1" source="29" target="32" edge="1">
          <mxGeometry x="-1" relative="1" as="geometry">
            <mxPoint x="660" y="680" as="targetPoint" />
            <Array as="points">
              <mxPoint x="710" y="680" />
              <mxPoint x="710" y="595" />
            </Array>
          </mxGeometry>
        </mxCell>
        <mxCell id="31" value="valid" style="edgeStyle=orthogonalEdgeStyle;html=1;align=left;verticalAlign=top;endArrow=open;endSize=8;entryX=0.5;entryY=0;entryDx=0;entryDy=0;" parent="1" source="29" target="ycadE-7DeE36cVl8lBZi-89" edge="1">
          <mxGeometry x="-1" relative="1" as="geometry">
            <mxPoint x="380" y="760" as="targetPoint" />
          </mxGeometry>
        </mxCell>
        <mxCell id="32" value="" style="rhombus;" parent="1" vertex="1">
          <mxGeometry x="650" y="580" width="30" height="30" as="geometry" />
        </mxCell>
        <mxCell id="34" value="" style="edgeStyle=orthogonalEdgeStyle;html=1;verticalAlign=bottom;endArrow=open;endSize=8;rounded=0;labelBackgroundColor=none;fontColor=default;entryX=0.5;entryY=0;entryDx=0;entryDy=0;exitX=0.5;exitY=0;exitDx=0;exitDy=0;" parent="1" source="32" edge="1">
          <mxGeometry relative="1" as="geometry">
            <mxPoint x="664.86" y="520" as="targetPoint" />
            <mxPoint x="664.6" y="470" as="sourcePoint" />
          </mxGeometry>
        </mxCell>
        <mxCell id="35" value="Show error message" style="rounded=1;whiteSpace=wrap;html=1;arcSize=40;" parent="1" vertex="1">
          <mxGeometry x="605" y="480" width="120" height="40" as="geometry" />
        </mxCell>
        <mxCell id="36" value="" style="edgeStyle=orthogonalEdgeStyle;html=1;verticalAlign=bottom;endArrow=open;endSize=8;entryX=1;entryY=0.5;entryDx=0;entryDy=0;" parent="1" source="35" target="ycadE-7DeE36cVl8lBZi-49" edge="1">
          <mxGeometry relative="1" as="geometry">
            <mxPoint x="665" y="330" as="targetPoint" />
            <Array as="points">
              <mxPoint x="665" y="160" />
            </Array>
          </mxGeometry>
        </mxCell>
        <mxCell id="37" value="Confirm action" style="rounded=1;whiteSpace=wrap;html=1;arcSize=40;" parent="1" vertex="1">
          <mxGeometry x="180" y="510" width="120" height="40" as="geometry" />
        </mxCell>
        <mxCell id="38" value="" style="edgeStyle=orthogonalEdgeStyle;html=1;verticalAlign=bottom;endArrow=open;endSize=8;entryX=0.5;entryY=0;entryDx=0;entryDy=0;" parent="1" source="37" target="ycadE-7DeE36cVl8lBZi-87" edge="1">
          <mxGeometry relative="1" as="geometry">
            <mxPoint x="240" y="610" as="targetPoint" />
          </mxGeometry>
        </mxCell>
        <mxCell id="40" value="" style="rhombus;" parent="1" vertex="1">
          <mxGeometry x="365" y="1020" width="30" height="30" as="geometry" />
        </mxCell>
        <mxCell id="42" value="" style="edgeStyle=orthogonalEdgeStyle;html=1;verticalAlign=bottom;endArrow=open;endSize=8;rounded=0;entryX=0.5;entryY=0;entryDx=0;entryDy=0;labelBackgroundColor=none;fontColor=default;" parent="1" target="ycadE-7DeE36cVl8lBZi-96" edge="1">
          <mxGeometry relative="1" as="geometry">
            <mxPoint x="379.65999999999997" y="1070" as="targetPoint" />
            <Array as="points" />
            <mxPoint x="379.65999999999997" y="1050" as="sourcePoint" />
          </mxGeometry>
        </mxCell>
        <mxCell id="43" value="" style="edgeStyle=orthogonalEdgeStyle;html=1;verticalAlign=bottom;endArrow=open;endSize=8;rounded=0;entryX=0.5;entryY=0;entryDx=0;entryDy=0;labelBackgroundColor=none;fontColor=default;" parent="1" edge="1">
          <mxGeometry relative="1" as="geometry">
            <mxPoint x="379.91" y="1150" as="targetPoint" />
            <Array as="points" />
            <mxPoint x="379.57" y="1120" as="sourcePoint" />
          </mxGeometry>
        </mxCell>
      </root>
    </mxGraphModel>
  </diagram>
</mxfile>
